Arimo-Italic.ufo
<glyph name="period" format="2">
	<unicode hex="002E"/>
	<advance width="569"/>
	<outline>
		<contour>
			<point x="318" y="219" type="line"/>
			<point x="123" y="219" type="line"/>
			<point x="80" y="0" type="line"/>
			<point x="275" y="0" type="line"/>
		</contour>
	</outline>
	<note>
period
</note>
</glyph>
<glyph name="slash" format="2">
	<unicode hex="002F"/>
	<advance width="569"/>
	<outline>
		<contour>
			<point x="745" y="1484" type="line"/>
			<point x="587" y="1484" type="line"/>
			<point x="-116" y="-20" type="line"/>
			<point x="45" y="-20" type="line"/>
		</contour>
	</outline>
	<note>
slash
</note>
</glyph>
<glyph name="I" format="2">
	<unicode hex="0049"/>
	<advance width="569"/>
	<outline>
		<contour>
			<point x="546" y="1409" type="line"/>
			<point x="355" y="1409" type="line"/>
			<point x="81" y="0" type="line"/>
			<point x="272" y="0" type="line"/>
		</contour>
	</outline>
	<note>
I
</note>
</glyph>
<glyph name="backslash" format="2">
	<unicode hex="005C"/>
	<advance width="569"/>
	<outline>
		<contour>
			<point x="294" y="1484" type="line"/>
			<point x="146" y="1484" type="line"/>
			<point x="320" y="-20" type="line"/>
			<point x="472" y="-20" type="line"/>
		</contour>
	</outline>
	<note>
backslash
</note>
</glyph>
<glyph name="grave" format="2">
	<unicode hex="0060"/>
	<advance width="682"/>
	<outline>
		<contour>
			<point x="503" y="1221" type="line"/>
			<point x="342" y="1508" type="line"/>
			<point x="135" y="1508" type="line"/>
			<point x="130" y="1479" type="line"/>
			<point x="412" y="1201" type="line"/>
			<point x="500" y="1201" type="line"/>
		</contour>
	</outline>
	<note>
grave
</note>
</glyph>
<glyph name="l" format="2">
	<unicode hex="006C"/>
	<advance width="455"/>
	<outline>
		<contour>
			<point x="501" y="1484" type="line"/>
			<point x="321" y="1484" type="line"/>
			<point x="33" y="0" type="line"/>
			<point x="212" y="0" type="line"/>
		</contour>
	</outline>
	<note>
l
</note>
</glyph>
<glyph name="bar" format="2">
	<unicode hex="007C"/>
	<advance width="532"/>
	<outline>
		<contour>
			<point x="379" y="1484" type="line"/>
			<point x="213" y="1484" type="line"/>
			<point x="213" y="-454" type="line"/>
			<point x="379" y="-454" type="line"/>
		</contour>
	</outline>
	<note>
bar
</note>
</glyph>
<glyph name="overscore" format="2">
	<unicode hex="00AF"/>
	<advance width="1131"/>
	<outline>
		<contour>
			<point x="1148" y="1620" type="line"/>
			<point x="-17" y="1620" type="line"/>
			<point x="-17" y="1503" type="line"/>
			<point x="1148" y="1503" type="line"/>
		</contour>
	</outline>
	<note>
overscore
</note>
</glyph>
<glyph name="acute" format="2">
	<unicode hex="00B4"/>
	<advance width="682"/>
	<outline>
		<contour>
			<point x="643" y="1479" type="line"/>
			<point x="648" y="1508" type="line"/>
			<point x="431" y="1508" type="line"/>
			<point x="178" y="1221" type="line"/>
			<point x="175" y="1201" type="line"/>
			<point x="269" y="1201" type="line"/>
		</contour>
	</outline>
	<note>
acute
</note>
</glyph>
<glyph name="middot" format="2">
	<unicode hex="00B7"/>
	<advance width="682"/>
	<outline>
		<contour>
			<point x="459" y="666" type="line"/>
			<point x="264" y="666" type="line"/>
			<point x="221" y="446" type="line"/>
			<point x="416" y="446" type="line"/>
		</contour>
	</outline>
	<note>
middot
</note>
</glyph>
<glyph name="macron" format="2">
	<unicode hex="02C9"/>
	<advance width="682"/>
	<outline>
		<contour>
			<point x="718" y="1363" type="line"/>
			<point x="168" y="1363" type="line"/>
			<point x="142" y="1236" type="line"/>
			<point x="692" y="1236" type="line"/>
		</contour>
	</outline>
	<note>
macron
</note>
</glyph>
<glyph name="uni02D4" format="2">
	<unicode hex="02D4"/>
	<advance width="682"/>
	<outline>
		<contour>
			<point x="540" y="481" type="line"/>
			<point x="397" y="481" type="line"/>
			<point x="397" y="730" type="line"/>
			<point x="284" y="730" type="line"/>
			<point x="284" y="481" type="line"/>
			<point x="141" y="481" type="line"/>
			<point x="141" y="373" type="line"/>
			<point x="540" y="373" type="line"/>
		</contour>
	</outline>
	<note>
uni02D4
</note>
</glyph>
<glyph name="uni02E1" format="2">
	<unicode hex="02E1"/>
	<advance width="190"/>
	<outline>
		<contour>
			<point x="345" y="1537" type="line"/>
			<point x="223" y="1537" type="line"/>
			<point x="27" y="491" type="line"/>
			<point x="149" y="491" type="line"/>
		</contour>
	</outline>
	<note>
uni02E1
</note>
</glyph>
<glyph name="uni02F9" format="2">
	<unicode hex="02F9"/>
	<advance width="682"/>
	<outline>
		<contour>
			<point x="487" y="1361" type="line"/>
			<point x="763" y="1361" type="line"/>
			<point x="763" y="1484" type="line"/>
			<point x="357" y="1484" type="line"/>
			<point x="357" y="1148" type="line"/>
			<point x="487" y="1148" type="line"/>
		</contour>
	</outline>
	<note>
uni02F9
</note>
</glyph>
<glyph name="uni02FA" format="2">
	<unicode hex="02FA"/>
	<advance width="682"/>
	<outline>
		<contour>
			<point x="765" y="1484" type="line"/>
			<point x="359" y="1484" type="line"/>
			<point x="359" y="1361" type="line"/>
			<point x="635" y="1361" type="line"/>
			<point x="635" y="1148" type="line"/>
			<point x="765" y="1148" type="line"/>
		</contour>
	</outline>
	<note>
uni02FA
</note>
</glyph>
<glyph name="uni02FD" format="2">
	<unicode hex="02FD"/>
	<advance width="814"/>
	<outline>
		<contour>
			<point x="687" y="-89" type="line"/>
			<point x="550" y="-89" type="line"/>
			<point x="550" y="-290" type="line"/>
			<point x="69" y="-290" type="line"/>
			<point x="69" y="-89" type="line"/>
			<point x="-67" y="-89" type="line"/>
			<point x="-67" y="-425" type="line"/>
			<point x="687" y="-425" type="line"/>
		</contour>
	</outline>
	<note>
uni02FD
</note>
</glyph>
<glyph name="uni02FE" format="2">
	<unicode hex="02FE"/>
	<advance width="814"/>
	<outline>
		<contour>
			<point x="691" y="-289" type="line"/>
			<point x="74" y="-289" type="line"/>
			<point x="74" y="-89" type="line"/>
			<point x="-69" y="-89" type="line"/>
			<point x="-69" y="-424" type="line"/>
			<point x="691" y="-424" type="line"/>
		</contour>
	</outline>
	<note>
uni02FE
</note>
</glyph>
<glyph name="uni0336" format="2">
	<unicode hex="0336"/>
	<outline>
		<contour>
			<point x="610" y="409" type="line"/>
			<point x="-582" y="409" type="line"/>
			<point x="-607" y="284" type="line"/>
			<point x="585" y="284" type="line"/>
		</contour>
	</outline>
	<note>
uni0336
</note>
</glyph>
<glyph name="uni0413" format="2">
	<unicode hex="0413"/>
	<advance width="1114"/>
	<outline>
		<contour>
			<point x="498" y="1254" type="line"/>
			<point x="1211" y="1254" type="line"/>
			<point x="1241" y="1410" type="line"/>
			<point x="337" y="1410" type="line"/>
			<point x="63" y="1" type="line"/>
			<point x="254" y="1" type="line"/>
		</contour>
	</outline>
	<note>
uni0413
</note>
</glyph>
<glyph name="maqaf" format="2">
	<unicode hex="05BE"/>
	<advance width="784"/>
	<outline>
		<contour>
			<point x="866" y="1356" type="line"/>
			<point x="295" y="1356" type="line"/>
			<point x="254" y="1145" type="line"/>
			<point x="825" y="1145" type="line"/>
		</contour>
	</outline>
	<note>
maqaf
</note>
</glyph>
<glyph name="vav" format="2">
	<unicode hex="05D5"/>
	<advance width="532"/>
	<outline>
		<contour>
			<point x="494" y="1227" type="line"/>
			<point x="309" y="1227" type="line"/>
			<point x="72" y="0" type="line"/>
			<point x="256" y="0" type="line"/>
		</contour>
	</outline>
	<note>
vav
</note>
</glyph>
<glyph name="uni2012" format="2">
	<unicode hex="2012"/>
	<advance width="1139"/>
	<outline>
		<contour>
			<point x="1151" y="588" type="line"/>
			<point x="13" y="588" type="line"/>
			<point x="-13" y="451" type="line"/>
			<point x="1124" y="451" type="line"/>
		</contour>
	</outline>
	<note>
uni2012
</note>
</glyph>
<glyph name="emdash" format="2">
	<unicode hex="2014"/>
	<advance width="2048"/>
	<outline>
		<contour>
			<point x="2061" y="588" type="line"/>
			<point x="13" y="588" type="line"/>
			<point x="-13" y="451" type="line"/>
			<point x="2034" y="451" type="line"/>
		</contour>
	</outline>
	<note>
emdash
</note>
</glyph>
<glyph name="uni2016" format="2">
	<unicode hex="2016"/>
	<advance width="856"/>
	<outline>
		<contour>
			<point x="379" y="1484" type="line"/>
			<point x="213" y="1484" type="line"/>
			<point x="213" y="-454" type="line"/>
			<point x="379" y="-454" type="line"/>
		</contour>
		<contour>
			<point x="703" y="1484" type="line"/>
			<point x="537" y="1484" type="line"/>
			<point x="537" y="-454" type="line"/>
			<point x="703" y="-454" type="line"/>
		</contour>
	</outline>
	<note>
uni2016
</note>
</glyph>
<glyph name="primereversed" format="2">
	<unicode hex="2035"/>
	<advance width="384"/>
	<outline>
		<contour>
			<point x="403" y="1409" type="line"/>
			<point x="207" y="1409" type="line"/>
			<point x="263" y="890" type="line"/>
			<point x="365" y="890" type="line"/>
		</contour>
	</outline>
	<note>
primereversed
</note>
</glyph>
<glyph name="uni2036" format="2">
	<unicode hex="2036"/>
	<advance width="725"/>
	<outline>
		<contour>
			<point x="403" y="1409" type="line"/>
			<point x="207" y="1409" type="line"/>
			<point x="263" y="890" type="line"/>
			<point x="365" y="890" type="line"/>
		</contour>
		<contour>
			<point x="745" y="1409" type="line"/>
			<point x="549" y="1409" type="line"/>
			<point x="605" y="890" type="line"/>
			<point x="707" y="890" type="line"/>
		</contour>
	</outline>
	<note>
uni2036
</note>
</glyph>
<glyph name="radicalex" format="2">
	<unicode hex="203E"/>
	<advance width="682"/>
	<outline>
		<contour>
			<point x="722" y="1620" type="line"/>
			<point x="-40" y="1620" type="line"/>
			<point x="-40" y="1526" type="line"/>
			<point x="722" y="1526" type="line"/>
		</contour>
	</outline>
	<note>
radicalex
</note>
</glyph>
<glyph name="uni2041" format="2">
	<unicode hex="2041"/>
	<advance width="1005"/>
	<outline>
		<contour>
			<point x="495" y="547" type="line"/>
			<point x="673" y="0" type="line"/>
			<point x="865" y="0" type="line"/>
			<point x="630" y="738" type="line"/>
			<point x="1101" y="1409" type="line"/>
			<point x="933" y="1409" type="line"/>
			<point x="-80" y="0" type="line"/>
			<point x="110" y="0" type="line"/>
		</contour>
	</outline>
	<note>
uni2041
</note>
</glyph>
<glyph name="fraction" format="2">
	<unicode hex="2044"/>
	<unicode hex="2215"/>
	<advance width="342"/>
	<outline>
		<contour>
			<point x="747" y="1409" type="line"/>
			<point x="593" y="1409" type="line"/>
			<point x="-557" y="0" type="line"/>
			<point x="-404" y="0" type="line"/>
		</contour>
	</outline>
	<note>
fraction
</note>
</glyph>
<glyph name="uni205E" format="2">
	<unicode hex="205E"/>
	<advance width="569"/>
	<outline>
		<contour>
			<point x="569" y="1484" type="line"/>
			<point x="374" y="1484" type="line"/>
			<point x="331" y="1265" type="line"/>
			<point x="526" y="1265" type="line"/>
		</contour>
		<contour>
			<point x="487" y="1063" type="line"/>
			<point x="292" y="1063" type="line"/>
			<point x="250" y="844" type="line"/>
			<point x="445" y="844" type="line"/>
		</contour>
		<contour>
			<point x="405" y="640" type="line"/>
			<point x="210" y="640" type="line"/>
			<point x="169" y="421" type="line"/>
			<point x="364" y="421" type="line"/>
		</contour>
		<contour>
			<point x="325" y="219" type="line"/>
			<point x="130" y="219" type="line"/>
			<point x="87" y="0" type="line"/>
			<point x="282" y="0" type="line"/>
		</contour>
	</outline>
	<note>
uni205E
</note>
</glyph>
<glyph name="uni2071" format="2">
	<unicode hex="2071"/>
	<advance width="331"/>
	<outline>
		<contour>
			<point x="400" y="1411" type="line"/>
			<point x="269" y="1411" type="line"/>
			<point x="246" y="1293" type="line"/>
			<point x="377" y="1293" type="line"/>
		</contour>
		<contour>
			<point x="350" y="1161" type="line"/>
			<point x="219" y="1161" type="line"/>
			<point x="101" y="564" type="line"/>
			<point x="232" y="564" type="line"/>
		</contour>
	</outline>
	<note>
uni2071
</note>
</glyph>
<glyph name="uni207B" format="2">
	<unicode hex="207B"/>
	<advance width="682"/>
	<outline>
		<contour>
			<point x="714" y="1036" type="line"/>
			<point x="157" y="1036" type="line"/>
			<point x="137" y="937" type="line"/>
			<point x="694" y="937" type="line"/>
		</contour>
	</outline>
	<note>
uni207B
</note>
</glyph>
<glyph name="uni2550" format="2">
	<unicode hex="2550"/>
	<advance width="1451"/>
	<outline>
		<contour>
			<point x="1461" y="874" type="line"/>
			<point x="-10" y="874" type="line"/>
			<point x="-10" y="729" type="line"/>
			<point x="1461" y="729" type="line"/>
		</contour>
		<contour>
			<point x="1461" y="514" type="line"/>
			<point x="-10" y="514" type="line"/>
			<point x="-10" y="369" type="line"/>
			<point x="1461" y="369" type="line"/>
		</contour>
	</outline>
	<note>
uni2550
</note>
</glyph>
<glyph name="uni2553" format="2">
	<unicode hex="2553"/>
	<advance width="1451"/>
	<outline>
		<contour>
			<point x="618" y="549" type="line"/>
			<point x="833" y="549" type="line"/>
			<point x="833" y="-621" type="line"/>
			<point x="978" y="-621" type="line"/>
			<point x="978" y="549" type="line"/>
			<point x="1461" y="549" type="line"/>
			<point x="1461" y="694" type="line"/>
			<point x="473" y="694" type="line"/>
			<point x="473" y="-621" type="line"/>
			<point x="618" y="-621" type="line"/>
		</contour>
	</outline>
	<note>
uni2553
</note>
</glyph>
<glyph name="upblock" format="2">
	<unicode hex="2580"/>
	<advance width="1451"/>
	<outline>
		<contour>
			<point x="1451" y="1864" type="line"/>
			<point x="0" y="1864" type="line"/>
			<point x="0" y="621" type="line"/>
			<point x="1451" y="621" type="line"/>
		</contour>
	</outline>
	<note>
upblock
</note>
</glyph>
<glyph name="block" format="2">
	<unicode hex="2588"/>
	<advance width="1451"/>
	<outline>
		<contour>
			<point x="1451" y="1864" type="line"/>
			<point x="0" y="1864" type="line"/>
			<point x="0" y="-621" type="line"/>
			<point x="1451" y="-621" type="line"/>
		</contour>
	</outline>
	<note>
block
</note>
</glyph>
<glyph name="lfblock" format="2">
	<unicode hex="258C"/>
	<advance width="1451"/>
	<outline>
		<contour>
			<point x="726" y="1864" type="line"/>
			<point x="0" y="1864" type="line"/>
			<point x="0" y="-621" type="line"/>
			<point x="726" y="-621" type="line"/>
		</contour>
	</outline>
	<note>
lfblock
</note>
</glyph>
<glyph name="filledrect" format="2">
	<unicode hex="25AC"/>
	<advance width="2048"/>
	<outline>
		<contour>
			<point x="2048" y="616" type="line"/>
			<point x="0" y="616" type="line"/>
			<point x="0" y="0" type="line"/>
			<point x="2048" y="0" type="line"/>
		</contour>
	</outline>
	<note>
filledrect
</note>
</glyph>
<glyph name="triagdn" format="2">
	<unicode hex="25BC"/>
	<advance width="2027"/>
	<outline>
		<contour>
			<point x="1612" y="1171" type="line"/>
			<point x="414" y="1171" type="line"/>
			<point x="1014" y="-27" type="line"/>
		</contour>
	</outline>
	<note>
triagdn
</note>
</glyph>
<glyph name="triaglf" format="2">
	<unicode hex="25C4"/>
	<advance width="2027"/>
	<outline>
		<contour>
			<point x="1626" y="1196" type="line"/>
			<point x="401" y="586" type="line"/>
			<point x="1626" y="-27" type="line"/>
		</contour>
	</outline>
	<note>
triaglf
</note>
</glyph>
<glyph name="uni2E1A" format="2">
	<unicode hex="2E1A"/>
	<advance width="666"/>
	<outline>
		<contour>
			<point x="255" y="1050" type="line"/>
			<point x="60" y="1050" type="line"/>
			<point x="60" y="831" type="line"/>
			<point x="255" y="831" type="line"/>
		</contour>
		<contour>
			<point x="606" y="1050" type="line"/>
			<point x="411" y="1050" type="line"/>
			<point x="411" y="831" type="line"/>
			<point x="606" y="831" type="line"/>
		</contour>
		<contour>
			<point x="606" y="576" type="line"/>
			<point x="60" y="576" type="line"/>
			<point x="60" y="416" type="line"/>
			<point x="606" y="416" type="line"/>
		</contour>
	</outline>
	<note>
uni2E1A
</note>
</glyph>
<glyph name="uni2E1C" format="2">
	<unicode hex="2E1C"/>
	<advance width="1024"/>
	<outline>
		<contour>
			<point x="903" y="-73" type="line"/>
			<point x="221" y="609" type="line"/>
			<point x="121" y="511" type="line"/>
			<point x="803" y="-171" type="line"/>
		</contour>
	</outline>
	<note>
uni2E1C
</note>
</glyph>
<glyph name="uni2E20" format="2">
	<unicode hex="2E20"/>
	<advance width="1128"/>
	<outline>
		<contour>
			<point x="489" y="464" type="line"/>
			<point x="764" y="464" type="line"/>
			<point x="764" y="593" type="line"/>
			<point x="489" y="593" type="line"/>
			<point x="489" y="1553" type="line"/>
			<point x="340" y="1553" type="line"/>
			<point x="340" y="-497" type="line"/>
			<point x="489" y="-497" type="line"/>
		</contour>
	</outline>
	<note>
uni2E20
</note>
</glyph>
<glyph name="uni2E22" format="2">
	<unicode hex="2E22"/>
	<advance width="674"/>
	<outline>
		<contour>
			<point x="340" y="1262" type="line"/>
			<point x="623" y="1262" type="line"/>
			<point x="623" y="1409" type="line"/>
			<point x="164" y="1409" type="line"/>
			<point x="164" y="516" type="line"/>
			<point x="340" y="516" type="line"/>
		</contour>
	</outline>
	<note>
uni2E22
</note>
</glyph>
<glyph name="uni2E23" format="2">
	<unicode hex="2E23"/>
	<advance width="674"/>
	<outline>
		<contour>
			<point x="510" y="1409" type="line"/>
			<point x="51" y="1409" type="line"/>
			<point x="51" y="1262" type="line"/>
			<point x="334" y="1262" type="line"/>
			<point x="334" y="516" type="line"/>
			<point x="510" y="516" type="line"/>
		</contour>
	</outline>
	<note>
uni2E23
</note>
</glyph>
<glyph name="uni2E24" format="2">
	<unicode hex="2E24"/>
	<advance width="674"/>
	<outline>
		<contour>
			<point x="623" y="-229" type="line"/>
			<point x="340" y="-229" type="line"/>
			<point x="340" y="516" type="line"/>
			<point x="164" y="516" type="line"/>
			<point x="164" y="-377" type="line"/>
			<point x="623" y="-377" type="line"/>
		</contour>
	</outline>
	<note>
uni2E24
</note>
</glyph>
<glyph name="uni2E2C" format="2">
	<unicode hex="2E2C"/>
	<advance width="1204"/>
	<outline>
		<contour>
			<point x="382" y="902" type="line"/>
			<point x="187" y="902" type="line"/>
			<point x="187" y="695" type="line"/>
			<point x="382" y="695" type="line"/>
		</contour>
		<contour>
			<point x="1017" y="902" type="line"/>
			<point x="822" y="902" type="line"/>
			<point x="822" y="695" type="line"/>
			<point x="1017" y="695" type="line"/>
		</contour>
		<contour>
			<point x="382" y="207" type="line"/>
			<point x="187" y="207" type="line"/>
			<point x="187" y="0" type="line"/>
			<point x="382" y="0" type="line"/>
		</contour>
		<contour>
			<point x="1017" y="207" type="line"/>
			<point x="822" y="207" type="line"/>
			<point x="822" y="0" type="line"/>
			<point x="1017" y="0" type="line"/>
		</contour>
	</outline>
	<note>
uni2E2C
</note>
</glyph>
<glyph name="uniA71E" format="2">
	<unicode hex="A71E"/>
	<advance width="569"/>
	<outline>
		<contour>
			<point x="636" y="1997" type="line"/>
			<point x="421" y="1997" type="line"/>
			<point x="392" y="1845" type="line"/>
			<point x="607" y="1845" type="line"/>
		</contour>
		<contour>
			<point x="526" y="1697" type="line"/>
			<point x="421" y="1697" type="line"/>
			<point x="217" y="934" type="line"/>
			<point x="435" y="934" type="line"/>
		</contour>
	</outline>
	<note>
uniA71E
</note>
</glyph>
